name rise43.5482peak65.4966fall89.1036.mot
datacolumns 19
datarows 15
range 2.13998300000000 2.16332500000000
endheader
time	ground_force1_vx	ground_force1_vy	ground_force1_vz	ground_force1_px	ground_force1_py	ground_force1_pz	ground_force2_vx	ground_force2_vy	ground_force2_vz	ground_force2_px	ground_force2_py	ground_force2_pz	ground_torque1_x	ground_torque1_y	ground_torque1_z	ground_torque2_x	ground_torque2_y	ground_torque2_z	
2.13998300000000	4.09180200000000	711.47108600000001	46.42061300000000	0.16042200000000	0.00000000000000	0.15530800000000	0.00000000000000	0.00000000000000	0.00000000000000	0.00000000000000	0.00000000000000	0.00000000000000	0.00000000000000	13.52224200000000	0.00000000000000	0.00000000000000	0.00000000000000	0.00000000000000	
2.14165500000000	3.46491400000000	712.37932499999999	46.49767200000000	0.15914500000000	0.00000000000000	0.15538900000000	0.00000000000000	0.00000000000000	0.00000000000000	0.00000000000000	0.00000000000000	0.00000000000000	0.00000000000000	13.65800900000000	0.00000000000000	0.00000000000000	0.00000000000000	0.00000000000000	
2.14332300000000	2.82612000000000	713.29810799999996	46.57728000000000	0.15785700000000	0.00000000000000	0.15547100000000	0.00000000000000	0.00000000000000	0.00000000000000	0.00000000000000	0.00000000000000	0.00000000000000	0.00000000000000	13.79755500000000	0.00000000000000	0.00000000000000	0.00000000000000	0.00000000000000	
2.14498500000000	2.17599300000000	714.22669099999996	46.65917100000000	0.15655900000000	0.00000000000000	0.15555400000000	0.00000000000000	0.00000000000000	0.00000000000000	0.00000000000000	0.00000000000000	0.00000000000000	0.00000000000000	13.94070800000000	0.00000000000000	0.00000000000000	0.00000000000000	0.00000000000000	
2.14665100000000	1.51513700000000	715.16443600000002	46.74309400000000	0.15525300000000	0.00000000000000	0.15563700000000	0.00000000000000	0.00000000000000	0.00000000000000	0.00000000000000	0.00000000000000	0.00000000000000	0.00000000000000	14.08729200000000	0.00000000000000	0.00000000000000	0.00000000000000	0.00000000000000	
2.14832800000000	0.84418300000000	716.11080200000004	46.82881400000000	0.15394300000000	0.00000000000000	0.15571900000000	0.00000000000000	0.00000000000000	0.00000000000000	0.00000000000000	0.00000000000000	0.00000000000000	0.00000000000000	14.23713100000000	0.00000000000000	0.00000000000000	0.00000000000000	0.00000000000000	
2.14998900000000	0.16378700000000	717.06534499999998	46.91611200000000	0.15262900000000	0.00000000000000	0.15580200000000	0.00000000000000	0.00000000000000	0.00000000000000	0.00000000000000	0.00000000000000	0.00000000000000	0.00000000000000	14.39004600000000	0.00000000000000	0.00000000000000	0.00000000000000	0.00000000000000	
2.15165300000000	-0.52537800000000	718.02771600000005	47.00478700000000	0.15131400000000	0.00000000000000	0.15588400000000	0.00000000000000	0.00000000000000	0.00000000000000	0.00000000000000	0.00000000000000	0.00000000000000	0.00000000000000	14.54585500000000	0.00000000000000	0.00000000000000	0.00000000000000	0.00000000000000	
2.15331700000000	-1.22262100000000	718.99765300000001	47.09465400000000	0.15000100000000	0.00000000000000	0.15596600000000	0.00000000000000	0.00000000000000	0.00000000000000	0.00000000000000	0.00000000000000	0.00000000000000	0.00000000000000	14.70437500000000	0.00000000000000	0.00000000000000	0.00000000000000	0.00000000000000	
2.15498700000000	-1.92723800000000	719.97498299999995	47.18554500000000	0.14869000000000	0.00000000000000	0.15604700000000	0.00000000000000	0.00000000000000	0.00000000000000	0.00000000000000	0.00000000000000	0.00000000000000	0.00000000000000	14.86542400000000	0.00000000000000	0.00000000000000	0.00000000000000	0.00000000000000	
2.15665400000000	-2.63851500000000	720.95961100000000	47.27731100000000	0.14738500000000	0.00000000000000	0.15612700000000	0.00000000000000	0.00000000000000	0.00000000000000	0.00000000000000	0.00000000000000	0.00000000000000	0.00000000000000	15.02881600000000	0.00000000000000	0.00000000000000	0.00000000000000	0.00000000000000	
2.15831800000000	-3.35573400000000	721.95151699999997	47.36981800000000	0.14608600000000	0.00000000000000	0.15620600000000	0.00000000000000	0.00000000000000	0.00000000000000	0.00000000000000	0.00000000000000	0.00000000000000	0.00000000000000	15.19436500000000	0.00000000000000	0.00000000000000	0.00000000000000	0.00000000000000	
2.15998700000000	-4.07817100000000	722.95075499999996	47.46295000000000	0.14479600000000	0.00000000000000	0.15628400000000	0.00000000000000	0.00000000000000	0.00000000000000	0.00000000000000	0.00000000000000	0.00000000000000	0.00000000000000	15.36188600000000	0.00000000000000	0.00000000000000	0.00000000000000	0.00000000000000	
2.16165100000000	-4.80510500000000	723.95743900000002	47.55660900000000	0.14351500000000	0.00000000000000	0.15636100000000	0.00000000000000	0.00000000000000	0.00000000000000	0.00000000000000	0.00000000000000	0.00000000000000	0.00000000000000	15.53119000000000	0.00000000000000	0.00000000000000	0.00000000000000	0.00000000000000	
2.16332500000000	-5.53581800000000	724.97174700000005	47.65071100000000	0.14224600000000	0.00000000000000	0.15643600000000	0.00000000000000	0.00000000000000	0.00000000000000	0.00000000000000	0.00000000000000	0.00000000000000	0.00000000000000	15.70209100000000	0.00000000000000	0.00000000000000	0.00000000000000	0.00000000000000	
